<svg xmlns="http://www.w3.org/2000/svg" width="44" height="44" fill="none" viewBox="0 0 44 44"><path stroke="#000" stroke-width="3.843" d="M9 32V26.5919M35 32V26.5919M35 26.5919C35 26.5919 35 24.7892 35 21.6344C35 21.1838 31.1 21.1838 31.1 21.1838M35 26.5919H9M9 26.5919C9 26.5919 9 22.0851 9 21.6344C9 21.1838 13.2714 21.1838 13.2714 21.1838M13.2714 21.1838C13.2714 21.1838 13.0857 14.619 13.2714 13.6725C13.4571 12.726 22.885 13.0555 22.885 13.0555C22.885 13.0555 30.969 12.8669 31.1 13.6725C31.2857 14.8144 31.1 21.1838 31.1 21.1838M13.2714 21.1838H22.885L31.1 21.1838"/><rect width="40.157" height="40.157" x="1.922" y="1.922" stroke="#000" stroke-width="3.843"/></svg>